<?xml version="1.0" encoding="UTF-8"?>
<!-- Generated by Pixelmator Pro 2.4.1 -->
<svg width="512" height="512" viewBox="330.66 -73.37 1226.76 1226.76" xmlns="http://www.w3.org/2000/svg" xmlns:xlink="http://www.w3.org/1999/xlink">
    <path id="Ellipse" fill="#ffffff" fill-rule="evenodd" stroke="#00a1fe" stroke-width="18" stroke-linecap="round" stroke-linejoin="round" visibility="hidden" d="M 982.078125 22.46875 L 1006.984375 24.203125 L 1031.546875 27.171875 L 1055.75 31.34375 L 1079.5 36.671875 L 1102.828125 43.140625 L 1125.65625 50.703125 L 1147.96875 59.34375 L 1169.75 69.015625 L 1190.953125 79.71875 L 1211.546875 91.40625 L 1231.515625 104.03125 L 1250.8125 117.59375 L 1269.40625 132.015625 L 1287.296875 147.328125 L 1308.53125 167.578125 L 1324.671875 184.703125 L 1339.96875 202.578125 L 1354.390625 221.171875 L 1367.953125 240.46875 L 1380.578125 260.4375 L 1392.265625 281.03125 L 1402.96875 302.234375 L 1412.640625 324.015625 L 1421.28125 346.328125 L 1428.84375 369.15625 L 1435.3125 392.484375 L 1440.640625 416.234375 L 1444.8125 440.4375 L 1447.78125 465 L 1449.515625 489.90625 L 1450 512 L 1449.515625 534.078125 L 1447.78125 558.984375 L 1444.8125 583.546875 L 1440.640625 607.75 L 1435.3125 631.5 L 1428.84375 654.828125 L 1421.28125 677.65625 L 1412.640625 699.96875 L 1402.96875 721.75 L 1392.265625 742.953125 L 1380.578125 763.546875 L 1367.953125 783.515625 L 1354.390625 802.8125 L 1339.96875 821.40625 L 1324.65625 839.296875 L 1304.40625 860.53125 L 1287.28125 876.671875 L 1269.40625 891.96875 L 1250.8125 906.390625 L 1231.515625 919.953125 L 1211.546875 932.578125 L 1190.953125 944.265625 L 1169.75 954.96875 L 1147.96875 964.640625 L 1125.65625 973.28125 L 1102.828125 980.84375 L 1079.5 987.3125 L 1055.75 992.640625 L 1031.546875 996.8125 L 1006.984375 999.78125 L 982.078125 1001.515625 L 960 1002 L 937.90625 1001.515625 L 913 999.78125 L 888.4375 996.8125 L 864.234375 992.640625 L 840.484375 987.3125 L 817.15625 980.84375 L 794.328125 973.28125 L 772.015625 964.640625 L 750.234375 954.96875 L 729.03125 944.265625 L 708.4375 932.578125 L 688.46875 919.953125 L 669.171875 906.390625 L 650.578125 891.96875 L 632.6875 876.65625 L 611.453125 856.40625 L 595.3125 839.28125 L 580.015625 821.40625 L 565.59375 802.8125 L 552.03125 783.515625 L 539.40625 763.546875 L 527.71875 742.953125 L 517.015625 721.75 L 507.34375 699.96875 L 498.703125 677.65625 L 491.140625 654.828125 L 484.671875 631.5 L 479.34375 607.75 L 475.171875 583.546875 L 472.203125 558.984375 L 470.46875 534.078125 L 470 512 L 470.46875 489.90625 L 472.203125 465 L 475.171875 440.4375 L 479.34375 416.234375 L 484.671875 392.484375 L 491.140625 369.15625 L 498.703125 346.328125 L 507.34375 324.015625 L 517.015625 302.234375 L 527.71875 281.03125 L 539.40625 260.4375 L 552.03125 240.46875 L 565.59375 221.171875 L 580.015625 202.578125 L 595.3125 184.703125 L 611.453125 167.578125 L 632.6875 147.328125 L 650.578125 132.015625 L 669.171875 117.59375 L 688.46875 104.03125 L 708.4375 91.40625 L 729.03125 79.71875 L 750.234375 69.015625 L 772.015625 59.34375 L 794.328125 50.703125 L 817.15625 43.140625 L 840.484375 36.671875 L 864.234375 31.34375 L 888.4375 27.171875 L 913 24.203125 L 937.90625 22.46875 L 960 22 Z"/>
    <path id="Heart" fill="#00a1fe" fill-rule="evenodd" stroke="#00a1fe" stroke-width="20" stroke-linecap="round" stroke-linejoin="round" d="M 1203.921875 13.125 L 1219.90625 14.03125 L 1230.640625 15.109375 L 1246.4375 17.421875 L 1257 19.4375 L 1272.546875 23.125 L 1287.859375 27.640625 L 1298.078125 31.15625 L 1317.78125 39.109375 L 1332.359375 46.078125 L 1351.0625 56.5 L 1364.71875 65.265625 L 1377.875 74.671875 L 1394.546875 88.109375 L 1410.3125 102.640625 L 1425.046875 118.1875 L 1438.71875 134.671875 L 1451.265625 152.015625 L 1459.984375 165.671875 L 1470.53125 184.484375 L 1480.390625 204.53125 L 1488.921875 225.1875 L 1496.09375 246.421875 L 1500.640625 262.875 L 1505.46875 285.25 L 1508.25 302.65625 L 1510.734375 326.359375 L 1511.734375 344.796875 L 1511.984375 364.3125 L 1511.21875 387.328125 L 1509.34375 410.40625 L 1506.3125 433.484375 L 1502.15625 456.59375 L 1496.859375 479.6875 L 1490.453125 502.671875 L 1485.53125 518.046875 L 1477.25 540.890625 L 1467.8125 563.65625 L 1457.28125 586.265625 L 1447.578125 605.046875 L 1428.59375 638.296875 L 1419.390625 653.09375 L 1404.921875 675.046875 L 1394.703125 689.6875 L 1378.65625 711.484375 L 1355.828125 740.28125 L 1343.734375 754.671875 L 1324.890625 776.09375 L 1298.3125 804.46875 L 1262.796875 839.59375 L 1225.03125 874.28125 L 1201.328125 894.890625 L 1176.921875 915.28125 L 1151.75 935.5 L 1125.828125 955.546875 L 1099.171875 975.40625 L 1071.75 995.078125 L 1043.5625 1014.59375 L 1004.875 1040.28125 L 988.609375 1050.734375 L 980.625 1055.359375 L 972.296875 1059.484375 L 960.59375 1064.4375 L 952.6875 1066.34375 L 943.234375 1067.015625 L 933.84375 1066.046875 L 926.03125 1063.9375 L 913 1058.1875 L 904.65625 1053.828125 L 883.21875 1040.296875 L 835.03125 1008.09375 L 788.9375 975.390625 L 753.546875 948.890625 L 719.484375 922.046875 L 686.75 894.875 L 655.359375 867.40625 L 625.296875 839.609375 L 596.671875 811.53125 L 576.25 790.265625 L 550.515625 761.828125 L 526.4375 733.140625 L 509.421875 711.4375 L 488.21875 682.375 L 468.6875 653.078125 L 450.796875 623.59375 L 438.46875 601.25 L 427.15625 578.734375 L 413.875 548.53125 L 405.171875 525.609375 L 395.375 495.0625 L 389.3125 471.9375 L 383.03125 441.234375 L 379.625 418.046875 L 376.859375 387.34375 L 376.09375 360.46875 L 376.921875 332.5 L 379.078125 308.5625 L 380.671875 296.765625 L 383.6875 279.578125 L 388.84375 257.421875 L 391.96875 246.421875 L 397.25 230.40625 L 405.421875 209.640625 L 414.953125 189.453125 L 425.359375 170.25 L 436.765625 152.078125 L 446.125 138.890625 L 459.515625 122.21875 L 474 106.453125 L 489.5 91.65625 L 505.96875 77.90625 L 523.328125 65.28125 L 537.03125 56.5 L 555.734375 46.078125 L 570.3125 39.109375 L 590.078125 31.125 L 610.390625 24.546875 L 631.078125 19.4375 L 646.828125 16.5625 L 657.5625 15.09375 L 678.859375 13.3125 L 705.421875 13.109375 L 721.125 13.875 L 731.5 14.828125 L 746.640625 16.859375 L 756.765625 18.671875 L 776.171875 23.265625 L 790.40625 27.640625 L 799.828125 31.015625 L 817.765625 38.6875 L 830.859375 45.40625 L 839.46875 50.390625 L 859.59375 63.78125 L 878.640625 78.609375 L 896.46875 94.8125 L 912.984375 112.296875 L 928.125 131.03125 L 941.8125 150.875 L 944.015625 154.640625 L 948.890625 146.84375 L 957.09375 134.921875 L 965.84375 123.40625 L 975.09375 112.3125 L 984.90625 101.59375 L 1002.15625 84.921875 L 1020.671875 69.578125 L 1032.453125 61 L 1044.515625 52.9375 L 1052.96875 47.8125 L 1065.828125 40.890625 L 1074.78125 36.640625 L 1088.3125 31 L 1097.6875 27.640625 L 1111.84375 23.296875 L 1121.609375 20.78125 L 1136.34375 17.71875 L 1146.484375 16.09375 L 1161.765625 14.296875 L 1177.359375 13.28125 L 1193.15625 13 Z"/>
    <path id="Ellipse-copy" fill="#00a1fe" fill-rule="evenodd" stroke="none" visibility="hidden" d="M 1361 512 C 1361 290.533813 1181.466187 111 960 111 C 738.533813 111 559 290.533813 559 512 C 559 733.466187 738.533813 913 960 913 C 1181.466187 913 1361 733.466187 1361 512 Z"/>
    <path id="Path" fill="#ffffff" fill-rule="evenodd" stroke="none" d="M 1054 643 L 1054 643 C 1106.752197 643 1113.57666 681.952271 1156.348633 700.899048 C 1183.038452 712.722229 1211.051758 720.001831 1231.437012 695.501953 C 1237.688843 687.99408 1241.01416 676.835144 1247.252075 670.053223 C 1248.83606 668.328491 1248.945557 674.436646 1249.472778 676.718201 C 1260.113647 722.781189 1247.176636 762.052979 1212.939087 794.556519 C 1171.774536 833.636108 1099.838501 825.707153 1054.89978 795.934082 C 1017.065674 770.86554 987.365479 731.373535 987 692 C 986.77063 667.282959 1022.288208 643 1054 643 Z"/>
    <path id="Rounded-Rectangle" fill="#ffffff" fill-rule="evenodd" stroke="#00a1fe" stroke-width="15" stroke-linecap="round" stroke-linejoin="round" d="M 864 885 C 841.908813 885 824 867.091125 824 845 L 824 518 L 706 518 C 683.908813 518 666 500.091187 666 478 C 666 455.908813 683.908813 438 706 438 L 1179 438 C 1201.091187 438 1219 455.908813 1219 478 C 1219 500.091187 1201.091187 518 1179 518 L 1053 518 L 1053 845 C 1053 867.091187 1035.091187 885 1013 885 C 990.908813 885 973 867.091187 973 845 L 973 790 L 904 790 L 904 845 C 904 867.091125 886.091187 885 864 885 Z"/>
    <path id="path1" fill="#ffffff" fill-rule="evenodd" stroke="#00a1fe" stroke-width="15" stroke-linecap="round" stroke-linejoin="round" d="M 995.93457 270.068237 L 996.674805 268.632874 C 1006.228149 250.126038 1022.16687 241.049561 1041.959473 238.46637 C 1053.915405 236.911682 1068.019409 236.292603 1079.459229 232.743958 C 1085.296387 230.931946 1087.623169 227.056396 1089.829834 233.812622 C 1096.179077 253.274109 1089.734619 282.033386 1081.224121 300.209473 C 1075.98584 311.398315 1062.429199 322.646729 1053.287231 330.655823 C 1033.86853 347.673035 1001.520752 348.350952 988.700012 323.850769 C 978.665405 304.670044 988.031982 285.391907 995.93457 270.068237 Z"/>
    <path id="Path-copy" fill="#ffffff" fill-rule="evenodd" stroke="#00a1fe" stroke-width="15" stroke-linecap="round" stroke-linejoin="round" d="M 891.794678 270.068237 L 891.054443 268.632874 C 881.501099 250.126038 865.562378 241.049561 845.769775 238.46637 C 833.813843 236.911682 819.709839 236.292603 808.27002 232.743958 C 802.432861 230.931946 800.106079 227.056396 797.899414 233.812622 C 791.550171 253.274109 797.994629 282.033386 806.505127 300.209473 C 811.743408 311.398315 825.300049 322.646729 834.442017 330.655823 C 853.860718 347.673035 886.208496 348.350952 899.029236 323.850769 C 909.063843 304.670044 899.697266 285.391907 891.794678 270.068237 Z"/>
    <path id="path2" fill="#ffffff" fill-rule="evenodd" stroke="none" d="M 1038 322.5 C 1038 270.309082 995.690918 228 943.5 228 C 891.309082 228 849 270.309082 849 322.5 C 849 374.690918 891.309082 417 943.5 417 C 995.690918 417 1038 374.690918 1038 322.5 Z"/>
    <path id="path3" fill="#ffffff" fill-rule="evenodd" stroke="none" d="M 922 387.397461 C 922 364.753784 900.497375 366.991577 874.5 359.815674 C 862.448792 356.489197 838.822449 352.369751 834.951233 349 C 834.415955 348.534058 834.012695 350.280212 833.792664 351 C 832.857239 354.061157 834.758362 365.357483 841 376 C 847.300476 386.742798 850.845581 393.48053 861 401 C 869.308167 407.152222 879.194946 416 891 416 C 917.233459 416 922 410.041138 922 387.397461 Z"/>
    <path id="Path-copy-1" fill="#ffffff" fill-rule="evenodd" stroke="none" d="M 965.563721 387.364929 C 965.580261 364.721313 987.081238 366.974792 1013.083862 359.817932 C 1025.137451 356.500244 1048.766846 352.398071 1052.640503 349.031189 C 1053.176147 348.565613 1053.578125 350.312073 1053.797607 351.032043 C 1054.730835 354.093872 1052.821411 365.388794 1046.572021 376.026733 C 1040.263672 386.764954 1036.713623 393.500061 1026.553711 401.012085 C 1018.241089 407.158264 1008.347839 415.998779 996.542786 415.990173 C 970.309326 415.970947 965.547119 410.008606 965.563721 387.364929 Z"/>
    <path id="path4" fill="#ffffff" fill-rule="evenodd" stroke="none" d="M 986 410 C 986 394.536011 967.195984 382 944 382 C 920.804016 382 902 394.536011 902 410 C 902 425.463989 920.804016 438 944 438 C 967.195984 438 986 425.463989 986 410 Z"/>
    <path id="Ellipse-copy-1" fill="#00a1fe" fill-rule="evenodd" stroke="none" d="M 965.653015 416.497192 C 965.653015 409.592041 955.657104 403.994324 943.326477 403.994324 C 930.995911 403.994324 921 409.592041 921 416.497192 C 921 423.402283 930.995911 429 943.326477 429 C 955.657104 429 965.653015 423.402283 965.653015 416.497192 Z"/>
    
</svg>
